<svg xmlns="http://www.w3.org/2000/svg" width="32" height="32" viewBox="0 0 32 32" fill="none"><path opacity="0.4" d="M21.434 2.6665H25.9486C27.8183 2.6665 29.3333 4.19431 29.3333 6.07979V10.6325C29.3333 12.518 27.8183 14.0458 25.9486 14.0458H21.434C19.5643 14.0458 18.0493 12.518 18.0493 10.6325V6.07979C18.0493 4.19431 19.5643 2.6665 21.434 2.6665Z" fill="black"></path><path d="M10.5661 17.9539C12.4358 17.9539 13.9508 19.4817 13.9508 21.3671V25.9199C13.9508 27.8041 12.4358 29.3332 10.5661 29.3332H6.05145C4.18176 29.3332 2.66675 27.8041 2.66675 25.9199V21.3671C2.66675 19.4817 4.18176 17.9539 6.05145 17.9539H10.5661ZM25.9487 17.9539C27.8184 17.9539 29.3334 19.4817 29.3334 21.3671V25.9199C29.3334 27.8041 27.8184 29.3332 25.9487 29.3332H21.4341C19.5644 29.3332 18.0494 27.8041 18.0494 25.9199V21.3671C18.0494 19.4817 19.5644 17.9539 21.4341 17.9539H25.9487ZM10.5661 2.6665C12.4358 2.6665 13.9508 4.19431 13.9508 6.07979V10.6325C13.9508 12.518 12.4358 14.0458 10.5661 14.0458H6.05145C4.18176 14.0458 2.66675 12.518 2.66675 10.6325V6.07979C2.66675 4.19431 4.18176 2.6665 6.05145 2.6665H10.5661Z" fill="black"></path></svg>